<svg xmlns="http://www.w3.org/2000/svg" xmlns:xlink="http://www.w3.org/1999/xlink" version="1.1" id="layer" x="0px" y="0px" style="enable-background:new 0 0 652 652;" xml:space="preserve" viewBox="26.4 250.1 600.2 151.8">
<path d="M619.9,316.5c0.3,0,0.5,0,0.7,0c0.2,0,0.4-0.1,0.6-0.1c0.2-0.1,0.3-0.2,0.5-0.4c0.1-0.2,0.2-0.5,0.2-0.7  c0-0.2,0-0.4-0.1-0.6c-0.1-0.1-0.2-0.3-0.4-0.3c-0.2-0.1-0.4-0.1-0.5-0.2c-0.2,0-0.4,0-0.6,0h-1.5v2.4L619.9,316.5z M620.5,313.2  c0.7-0.1,1.4,0.1,2,0.5c0.2,0.2,0.4,0.5,0.5,0.7c0.1,0.3,0.2,0.6,0.1,0.9c0,0.3,0,0.6-0.1,0.8c-0.1,0.3-0.3,0.5-0.5,0.7  c-0.4,0.3-0.9,0.5-1.4,0.6l2.2,3.3H622l-2-3.2h-1.2v3.2h-1.2v-7.6L620.5,313.2z M615.2,319.1c0.3,0.7,0.6,1.2,1.1,1.8  c0.5,0.5,1.1,0.9,1.7,1.2c0.7,0.3,1.4,0.4,2.1,0.4c0.7,0,1.4-0.1,2.1-0.4c0.6-0.3,1.2-0.7,1.7-1.2s0.9-1.1,1.1-1.7  c0.3-0.7,0.4-1.4,0.4-2.2c0-0.7-0.1-1.5-0.4-2.2c-0.3-0.6-0.6-1.2-1.1-1.7c-0.5-0.5-1-0.9-1.7-1.2c-0.7-0.3-1.4-0.4-2.1-0.4  c-0.7,0-1.4,0.1-2.1,0.4c-0.6,0.3-1.2,0.7-1.7,1.2c-0.5,0.5-0.9,1.1-1.1,1.7c-0.3,0.7-0.4,1.4-0.4,2.2  C614.7,317.7,614.9,318.4,615.2,319.1L615.2,319.1z M614.1,314.4c0.3-0.8,0.8-1.5,1.4-2c0.6-0.6,1.3-1,2.1-1.4  c0.8-0.3,1.6-0.5,2.5-0.5c1.7,0,3.3,0.7,4.6,1.9c0.6,0.6,1,1.3,1.4,2c0.3,0.8,0.5,1.7,0.5,2.5c0,0.9-0.2,1.8-0.5,2.6  c-0.5,1.2-1.3,2.2-2.4,2.8c-1.1,0.7-2.3,1.1-3.5,1c-0.9,0-1.7-0.2-2.5-0.5c-0.8-0.3-1.5-0.8-2.1-1.4c-0.6-0.6-1.1-1.3-1.4-2.1  c-0.3-0.8-0.5-1.7-0.5-2.6C613.6,316,613.8,315.2,614.1,314.4L614.1,314.4z M293.4,281.1H255c-0.7,0-1.3,0.2-1.8,0.7  c-0.5,0.4-0.8,1-0.8,1.7c0,0.3,0,0.7,0.1,1c0.1,0.3,0.3,0.6,0.5,0.9c0.2,0.2,0.5,0.4,0.8,0.6c0.3,0.1,0.6,0.2,1,0.2h6.1  c0.4,0,0.7,0.1,1,0.4c0.3,0.3,0.4,0.6,0.4,1v77c0,0.4-0.1,0.7-0.4,1c-0.3,0.3-0.6,0.4-1,0.4h-6c-0.6,0-1.1,0.2-1.6,0.5  c-0.5,0.4-0.8,0.9-0.9,1.4c-0.1,0.4-0.1,0.7,0,1.1c0.1,0.4,0.3,0.7,0.5,1c0.2,0.3,0.5,0.5,0.9,0.7c0.3,0.2,0.7,0.2,1.1,0.2h25.8  c0.6,0,1.1-0.2,1.6-0.5c0.5-0.4,0.8-0.9,0.9-1.4c0.1-0.4,0.1-0.7,0-1.1c-0.1-0.4-0.3-0.7-0.5-1c-0.2-0.3-0.5-0.5-0.9-0.7  c-0.3-0.2-0.7-0.2-1.1-0.2h-6.1c-0.4,0-0.7-0.1-1-0.4c-0.3-0.3-0.4-0.6-0.4-1v-77c0-0.4,0.1-0.7,0.4-1c0.3-0.3,0.6-0.4,1-0.4h16  c10.3,0,15.5,8.6,15.5,19.9c0,12-3.8,20.9-15.5,20.9c-0.5,0-9,0-9.5,0c-0.6,0-1.2,0.3-1.7,0.8c-0.4,0.5-0.7,1.1-0.7,1.7  c0,0.6,0.2,1.3,0.7,1.7c0.4,0.5,1,0.7,1.7,0.8h12.3c3.3,0.1,6.6-0.5,9.7-1.8c3.1-1.3,5.8-3.2,8.1-5.6s4.1-5.3,5.2-8.4  c1.1-3.1,1.6-6.5,1.3-9.8c0.2-3.3-0.2-6.6-1.3-9.8c-1.1-3.1-2.9-6-5.2-8.4c-2.3-2.4-5.1-4.3-8.1-5.5  C300,281.5,296.7,281,293.4,281.1z M400.7,359.6c-3,1.5-6.1,2.9-9.3,4.1c-6.2,1.8-9.6-2.1-9.6-9l0-39.7c0-0.7-0.3-1.4-0.8-1.9  c-0.5-0.5-1.2-0.8-1.9-0.8h-15.5c-0.7,0-1.3,0.2-1.8,0.7c-0.5,0.4-0.8,1.1-0.8,1.7c0,0.3,0,0.7,0.1,1c0.1,0.3,0.3,0.6,0.5,0.9  c0.2,0.2,0.5,0.4,0.8,0.6c0.3,0.1,0.6,0.2,1,0.2h6.1c0.4,0,0.7,0.1,1,0.4c0.3,0.3,0.4,0.6,0.4,1v33.2c0,11.4,0,17.1,8.1,19.6h0  c2.7,0.8,5.5,1,8.2,0.6c2.8-0.4,5.4-1.4,7.7-2.9c4.2-2.5,8.3-5.2,8.3-5.2c0.3-0.2,0.6-0.4,0.8-0.7c0.2-0.3,0.3-0.6,0.4-1  c0.1-0.3,0.1-0.7,0-1c-0.1-0.3-0.2-0.7-0.5-0.9c-0.2-0.3-0.4-0.5-0.7-0.7c-0.3-0.2-0.6-0.3-0.9-0.4c-0.3-0.1-0.6-0.1-0.9,0  S401,359.5,400.7,359.6z M424.6,365.8h-2.3c-0.4,0-0.7-0.1-1-0.4c-0.3-0.3-0.4-0.6-0.4-1V315c0-0.7-0.3-1.4-0.8-1.9  c-0.5-0.5-1.2-0.8-1.9-0.8h-15.5c-0.7,0-1.3,0.2-1.8,0.7c-0.5,0.4-0.8,1.1-0.8,1.7c0,0.3,0,0.7,0.1,1c0.1,0.3,0.3,0.6,0.5,0.9  c0.2,0.2,0.5,0.4,0.8,0.6c0.3,0.1,0.6,0.2,1,0.2h6.1c0.4,0,0.7,0.1,1,0.4c0.3,0.3,0.4,0.6,0.4,1V368c0,0.7,0.3,1.4,0.8,1.9  c0.5,0.5,1.2,0.8,1.9,0.8h12c0.3,0,0.7-0.1,1-0.2c0.3-0.1,0.6-0.3,0.8-0.6c0.2-0.2,0.4-0.5,0.5-0.9c0.1-0.3,0.2-0.7,0.1-1  c-0.1-0.7-0.4-1.3-0.8-1.7S425.2,365.8,424.6,365.8z M353.5,365.8h-6.1c-0.4,0-0.7-0.1-1-0.4s-0.4-0.6-0.4-1v-80.6  c0-0.7-0.3-1.4-0.8-1.9c-0.5-0.5-1.2-0.8-1.9-0.8h-15.5c-0.6,0-1.2,0.2-1.6,0.6c-0.5,0.4-0.8,0.9-0.9,1.5c-0.1,0.4-0.1,0.7,0,1.1  c0.1,0.4,0.3,0.7,0.5,1c0.2,0.3,0.5,0.5,0.9,0.7c0.3,0.2,0.7,0.2,1.1,0.2h6.1c0.4,0,0.7,0.1,1,0.4c0.3,0.3,0.4,0.6,0.4,1v77  c0,0.4-0.1,0.7-0.4,1c-0.3,0.3-0.6,0.4-1,0.4h-6c-0.3,0-0.7,0-1,0.1c-0.3,0.1-0.6,0.3-0.8,0.5c-0.2,0.2-0.4,0.5-0.6,0.8  c-0.1,0.3-0.2,0.6-0.2,1c0,0.3,0.1,0.7,0.2,1c0.1,0.3,0.3,0.6,0.6,0.8c0.2,0.2,0.5,0.4,0.8,0.5c0.3,0.1,0.6,0.2,1,0.2h25.7  c0.6,0,1.2-0.2,1.6-0.6c0.5-0.4,0.8-0.9,0.9-1.5c0.1-0.4,0.1-0.7,0-1.1c-0.1-0.4-0.3-0.7-0.5-1c-0.2-0.3-0.5-0.5-0.9-0.7  C354.3,365.8,353.9,365.8,353.5,365.8L353.5,365.8z M584.5,331.9h-19.2c-0.6,0-1.2,0.2-1.7,0.6c-0.5,0.4-0.8,0.9-0.9,1.5  c-0.1,0.4,0,0.7,0.1,1.1c0.1,0.4,0.3,0.7,0.5,1c0.2,0.3,0.5,0.5,0.9,0.7c0.3,0.2,0.7,0.2,1,0.2h28.9c0.4,0,0.7-0.1,1-0.2  s0.6-0.3,0.9-0.6s0.5-0.6,0.6-0.9c0.1-0.3,0.2-0.7,0.2-1.1v-2.5c0-13.2-10.4-20.8-23.7-20.8c-13.4,0-26.7,11.3-26.7,30.1  c0,0.9,0,2.2,0.1,3.1c0.2,4.8,1.6,9.4,4.1,13.5s5.9,7.5,10.1,9.8c4.1,2.4,8.8,3.6,13.5,3.7c4.8,0.1,9.4-1.1,13.6-3.3  c2.5-1.3,4.8-2.8,7-4.6c0.3-0.2,0.5-0.4,0.7-0.7c0.2-0.3,0.3-0.6,0.4-0.9c0.1-0.3,0.1-0.7,0-1c-0.1-0.3-0.2-0.7-0.4-0.9  c-0.2-0.3-0.4-0.5-0.7-0.7c-0.3-0.2-0.6-0.3-1-0.4c-0.3-0.1-0.7,0-1,0c-0.3,0.1-0.7,0.2-0.9,0.5c-4.2,2.5-8.9,3.9-13.7,4.2  c-13.7,0-21-8.8-21-23.8v-2.5c0-2.4,0.3-4.8,0.8-7.1c2.2-8.4,8-14,15-14c7.8,0,12.4,5.3,12.8,14.6c0,0.2,0,0.4-0.1,0.5  c-0.1,0.2-0.2,0.3-0.3,0.5c-0.1,0.1-0.3,0.2-0.4,0.3C584.9,331.9,584.7,331.9,584.5,331.9L584.5,331.9z M463.7,369.9  c0.4-0.4,0.6-0.9,0.7-1.5c0-0.3,0-0.7-0.1-1c-0.1-0.3-0.3-0.6-0.5-0.9c-0.2-0.2-0.5-0.4-0.8-0.6c-0.3-0.1-0.6-0.2-1-0.2h-6.1  c-0.4,0-0.7-0.1-1-0.4c-0.3-0.3-0.4-0.6-0.4-1V315c0-0.7-0.3-1.4-0.8-1.9c-0.5-0.5-1.2-0.8-1.9-0.8h-12c-0.3,0-0.6,0.1-0.9,0.2  c0,0,0,0-0.1,0c-0.3,0.1-0.5,0.3-0.7,0.5L438,313c-0.2,0.2-0.4,0.4-0.5,0.7c0,0,0,0.1,0,0.1c-0.1,0.3-0.2,0.5-0.2,0.8v0.1v0.1v0.2  c0.1,0.6,0.3,1.2,0.8,1.6c0.5,0.4,1,0.7,1.7,0.7h0h2.4c0.4,0,0.7,0.1,1,0.4c0.3,0.3,0.4,0.6,0.4,1v45.7c0,0.4-0.1,0.7-0.4,1  c-0.3,0.3-0.6,0.4-1,0.4h-2.4c-0.7,0-1.3,0.3-1.8,0.7c-0.5,0.5-0.7,1.1-0.7,1.8c0,0.7,0.3,1.3,0.7,1.8c0.5,0.5,1.1,0.7,1.8,0.7h22.1  c0.6,0,1.2-0.2,1.6-0.6c0,0,0.1-0.1,0.1-0.1C463.6,370,463.6,369.9,463.7,369.9z M497.3,365.8h-2.4c-0.4,0-0.7-0.1-1-0.4  c-0.3-0.3-0.4-0.6-0.4-1v-33.1c0-11.4-0.5-16.6-8.1-19.6c-2.7-0.8-5.5-1-8.2-0.6c-2.8,0.4-5.4,1.4-7.8,2.9c-4.2,2.5-8.3,5.2-8.3,5.2  c-0.3,0.2-0.6,0.4-0.8,0.7c-0.2,0.3-0.3,0.6-0.4,1c-0.1,0.3-0.1,0.7,0,1c0.1,0.3,0.2,0.7,0.4,0.9c0.2,0.3,0.4,0.5,0.6,0.7  c0.3,0.2,0.5,0.3,0.8,0.4c0.3,0.1,0.6,0.1,0.9,0c0.3-0.1,0.6-0.2,0.8-0.4c3-1.6,6.2-3,9.4-4.1c6.2-1.6,9.6,2.1,9.6,9v36.5  c0,0.1,0,0.2-0.1,0.4c0,0.1-0.1,0.2-0.2,0.3c-0.1,0.1-0.2,0.2-0.3,0.2c-0.1,0-0.2,0.1-0.3,0.1h-2.8c-0.7,0-1.3,0.3-1.8,0.7  s-0.7,1.1-0.7,1.8c0,0.7,0.3,1.3,0.7,1.8c0.5,0.5,1.1,0.7,1.8,0.7h18.4c0.5,0,1-0.1,1.4-0.4l0,0c0.1-0.1,0.2-0.2,0.3-0.3l0.1-0.1  c0.1-0.1,0.2-0.2,0.2-0.3l0.1-0.1c0.1-0.1,0.1-0.2,0.2-0.3c0,0,0-0.1,0.1-0.2c0-0.1,0.1-0.2,0.1-0.3c0-0.1,0-0.1,0-0.2l0-0.2v-0.1  v-0.1c0-0.7-0.2-1.3-0.7-1.8C498.5,366,497.9,365.8,497.3,365.8z M536.4,365.8H534c-0.4,0-0.7-0.1-1-0.4c-0.3-0.3-0.4-0.6-0.4-1  v-33.1c0-11.4-0.5-16.6-8.1-19.6c-2.7-0.8-5.5-1-8.2-0.6c-2.8,0.4-5.4,1.4-7.7,2.9c-4.2,2.5-8.3,5.2-8.3,5.2  c-0.3,0.2-0.6,0.4-0.8,0.7c-0.2,0.3-0.4,0.6-0.4,1c-0.1,0.3-0.1,0.7,0,1c0.1,0.3,0.2,0.7,0.4,0.9c0.2,0.3,0.4,0.5,0.7,0.7  c0.3,0.2,0.6,0.3,0.9,0.3c0.3,0.1,0.6,0,0.9,0c0.3-0.1,0.6-0.2,0.8-0.4c3-1.5,6.1-2.9,9.3-4.1c6.2-1.8,9.6,2.1,9.6,9v36  c0,0.2,0,0.4-0.1,0.5c-0.1,0.2-0.2,0.3-0.3,0.4c-0.1,0.1-0.3,0.2-0.4,0.3c-0.2,0.1-0.3,0.1-0.5,0.1H518c-0.5,0-0.9,0.1-1.3,0.4  c-0.4,0.2-0.7,0.6-0.9,1v0c-0.1,0.1-0.1,0.2-0.1,0.4l0,0.1c0,0.1,0,0.2,0,0.3c0,0,0,0.1,0,0.1v0.1v0.1v0.1c0,0,0,0,0,0.1  c0.1,0.6,0.3,1.2,0.8,1.6c0.5,0.4,1.1,0.7,1.7,0.7h18.4c0.6,0,1.2-0.2,1.7-0.7c0.5-0.4,0.7-1,0.8-1.7c0-0.2,0-0.3,0-0.5  c-0.1-0.6-0.4-1.2-0.8-1.6S537,365.8,536.4,365.8L536.4,365.8z M158.5,339.7c0.7,1.3,1.1,2.7,1.1,4.2c0,1.5-0.4,2.9-1.1,4.2  l-21.1,36.8c-1.8,3.1-4.3,5.6-7.4,7.4c-3.1,1.8-6.6,2.7-10.1,2.7H72.2c-0.8,0-1.7,0.3-2.3,0.8c-0.7,0.5-1.1,1.3-1.3,2.1  c-0.1,0.5-0.1,1,0.1,1.5c0.1,0.5,0.4,0.9,0.7,1.3s0.7,0.7,1.2,0.9c0.5,0.2,1,0.3,1.5,0.3h47.8c4.8,0,9.4-1.3,13.6-3.7  c4.1-2.4,7.6-5.8,9.9-10l21.2-36.8c1.3-2.3,2-5,2-7.7c0-2.7-0.7-5.3-2-7.7l-17.6-30.6c-0.2-0.4-0.5-0.7-0.9-0.9  c-0.4-0.2-0.8-0.3-1.3-0.3h-5.5c-0.1,0-0.2,0-0.3,0.1c-0.1,0.1-0.2,0.1-0.2,0.2c-0.1,0.1-0.1,0.2-0.1,0.3c0,0.1,0,0.2,0.1,0.3  L158.5,339.7z M123.9,372.6c-0.7,1.3-1.8,2.3-3,3c-1.3,0.7-2.7,1.1-4.2,1.1H74.4c-3.5,0-7-0.9-10.1-2.7c-3.1-1.8-5.6-4.3-7.4-7.4  l-23.8-41.4c-0.4-0.8-1.1-1.4-2-1.7c-0.8-0.3-1.7-0.3-2.6,0.1c-0.4,0.2-0.8,0.5-1.2,0.9c-0.3,0.4-0.6,0.8-0.7,1.3  c-0.2,0.5-0.2,1-0.2,1.4c0,0.5,0.2,1,0.4,1.4l23.9,41.6c2.4,4.1,5.8,7.6,9.9,10c4.1,2.4,8.8,3.7,13.6,3.7h42.3  c2.7,0,5.3-0.7,7.6-2.1c2.3-1.3,4.2-3.3,5.6-5.6l17.6-30.6c0.2-0.4,0.3-0.8,0.3-1.3c0-0.4-0.1-0.9-0.3-1.3l-2.8-4.8  c-0.1-0.1-0.1-0.2-0.2-0.2c-0.1-0.1-0.2-0.1-0.3-0.1c-0.1,0-0.2,0-0.3,0.1c-0.1,0.1-0.2,0.1-0.2,0.2L123.9,372.6z M78.2,358.9  c-1.5,0-2.9-0.4-4.2-1.1c-1.3-0.7-2.3-1.8-3.1-3.1l-21.1-36.8c-1.8-3.1-2.7-6.6-2.7-10.1s0.9-7.1,2.7-10.1l23.8-41.4  c0.4-0.7,0.6-1.6,0.5-2.4c-0.1-0.8-0.5-1.6-1.2-2.2c-0.4-0.3-0.8-0.6-1.3-0.7c-0.5-0.1-1-0.2-1.5-0.1c-0.5,0.1-1,0.3-1.4,0.6  c-0.4,0.3-0.8,0.7-1,1.1l-23.9,41.5c-2.4,4.1-3.6,8.8-3.6,13.6c0,4.8,1.3,9.5,3.6,13.6L65,358.2c1.3,2.3,3.3,4.3,5.6,5.6  c2.3,1.3,4.9,2.1,7.6,2.1h35.2c0.4,0,0.9-0.1,1.3-0.3c0.4-0.2,0.7-0.5,0.9-0.9l2.8-4.8c0.1-0.1,0.1-0.2,0.1-0.3c0-0.1,0-0.2-0.1-0.3  c-0.1-0.1-0.1-0.2-0.2-0.2c-0.1-0.1-0.2-0.1-0.3-0.1L78.2,358.9z M67.1,312.3c-0.7-1.3-1.1-2.7-1.1-4.2c0-1.5,0.4-2.9,1.1-4.2  l21.1-36.8c1.8-3.1,4.3-5.6,7.4-7.4c3.1-1.8,6.6-2.7,10.1-2.7h47.6c0.8,0,1.7-0.3,2.3-0.8c0.7-0.5,1.1-1.3,1.3-2.1  c0.1-0.5,0.1-1-0.1-1.5c-0.1-0.5-0.4-0.9-0.7-1.3c-0.3-0.4-0.7-0.7-1.2-0.9c-0.5-0.2-1-0.3-1.5-0.3l-47.8,0c-4.8,0-9.4,1.3-13.6,3.7  c-4.1,2.4-7.6,5.8-9.9,10l-21.1,36.8c-1.3,2.3-2,5-2,7.7c0,2.7,0.7,5.3,2,7.7l17.6,30.6c0.2,0.4,0.5,0.7,0.9,0.9  c0.4,0.2,0.8,0.3,1.3,0.3h5.5c0.1,0,0.2,0,0.3-0.1c0.1-0.1,0.2-0.1,0.2-0.2c0.1-0.1,0.1-0.2,0.1-0.3c0-0.1,0-0.2-0.1-0.3L67.1,312.3  z M101.7,279.4c0.7-1.3,1.8-2.3,3.1-3c1.3-0.7,2.7-1.1,4.2-1.1h42.3c3.5,0,7,0.9,10.1,2.7c3.1,1.8,5.6,4.3,7.4,7.4l23.8,41.4  c0.4,0.8,1.1,1.4,2,1.7c0.8,0.3,1.7,0.3,2.6-0.1c0.4-0.2,0.8-0.5,1.2-0.9c0.3-0.4,0.6-0.8,0.7-1.3c0.2-0.5,0.2-1,0.2-1.4  c-0.1-0.5-0.2-1-0.4-1.4l-23.9-41.6c-2.4-4.1-5.8-7.6-9.9-10c-4.1-2.4-8.8-3.7-13.6-3.7h-42.3c-2.7,0-5.3,0.7-7.6,2.1  c-2.3,1.3-4.2,3.3-5.6,5.6l-17.6,30.6c-0.2,0.4-0.3,0.8-0.3,1.3c0,0.4,0.1,0.9,0.3,1.3l2.8,4.8c0.1,0.1,0.1,0.2,0.2,0.2  c0.1,0.1,0.2,0.1,0.3,0.1c0.1,0,0.2,0,0.3-0.1c0.1-0.1,0.2-0.1,0.2-0.2L101.7,279.4z M147.4,293.1c1.5,0,2.9,0.4,4.2,1.1  c1.3,0.7,2.3,1.8,3.1,3.1l21.1,36.8c1.8,3.1,2.7,6.6,2.7,10.1c0,3.6-0.9,7.1-2.7,10.1L152,395.8c-0.4,0.7-0.6,1.6-0.5,2.4  c0.1,0.8,0.5,1.6,1.2,2.2c0.4,0.3,0.8,0.6,1.3,0.7c0.5,0.1,1,0.1,1.5,0.1c0.5-0.1,1-0.3,1.4-0.6c0.4-0.3,0.8-0.7,1-1.1l23.9-41.5  c2.4-4.1,3.6-8.8,3.6-13.6c0-4.8-1.3-9.5-3.6-13.6l-21.2-36.8c-1.3-2.3-3.3-4.3-5.6-5.6c-2.3-1.3-4.9-2.1-7.6-2.1h-35.2  c-0.4,0-0.9,0.1-1.3,0.3c-0.4,0.2-0.7,0.5-0.9,0.9l-2.8,4.8c-0.1,0.1-0.1,0.2-0.1,0.3c0,0.1,0,0.2,0.1,0.3c0.1,0.1,0.1,0.2,0.2,0.2  c0.1,0.1,0.2,0.1,0.3,0.1L147.4,293.1z"/>
</svg>