<svg xmlns="http://www.w3.org/2000/svg" version="1.0" preserveAspectRatio="xMidYMid meet" viewBox="39 460.3 1002 179.7">

<g transform="translate(0.000000,1080.000000) scale(0.100000,-0.100000)" fill="#000000" stroke="none">
<path d="M4270 6185 c-72 -21 -123 -55 -143 -98 -47 -98 17 -186 163 -223 78 -20 210 -15 283 11 57 20 123 79 132 118 19 73 -33 150 -122 182 -68 24 -241 30 -313 10z"/>
<path d="M9035 5988 c-2 -7 -94 -359 -205 -783 -110 -423 -203 -778 -206 -787 -5 -17 11 -18 240 -18 l245 0 15 53 c8 28 108 381 221 782 113 402 208 738 211 748 5 16 -12 17 -256 17 -200 0 -262 -3 -265 -12z"/>
<path d="M1780 5413 c0 -616 2 -600 -63 -647 -25 -18 -41 -21 -115 -18 -48 1 -113 8 -144 16 l-58 13 0 -153 c0 -148 1 -154 23 -168 50 -34 148 -50 297 -51 123 0 156 3 216 22 141 45 251 146 306 281 l23 57 3 603 3 602 -246 0 -245 0 0 -557z"/>
<path d="M6730 5200 l0 -770 245 0 245 0 0 770 0 770 -245 0 -245 0 0 -770z"/>
<path d="M7410 5795 l0 -175 175 0 175 0 0 -595 0 -595 245 0 245 0 0 595 0 595 180 0 180 0 0 175 0 175 -600 0 -600 0 0 -175z"/>
<path d="M762 5683 l-372 -137 2 -209 3 -210 380 -138 c209 -76 381 -139 383 -139 1 0 2 78 2 174 l0 174 -274 68 c-151 38 -273 70 -271 72 2 2 124 34 272 71 l268 67 3 172 c2 134 0 172 -10 171 -7 0 -181 -62 -386 -136z"/>
<path d="M9652 5648 l3 -172 268 -67 c148 -37 270 -69 272 -71 2 -2 -120 -34 -271 -72 l-274 -68 0 -174 c0 -96 1 -174 3 -174 1 0 171 63 377 139 l375 139 3 209 2 209 -372 137 c-205 75 -376 137 -381 137 -4 0 -6 -77 -5 -172z"/>
<path d="M3105 5630 c-349 -38 -555 -265 -555 -609 1 -394 245 -620 668 -621 365 0 592 146 669 431 23 87 23 280 0 369 -45 168 -141 288 -287 358 -47 22 -116 47 -155 55 -93 20 -241 27 -340 17z m229 -334 c139 -106 136 -470 -5 -563 -52 -34 -137 -38 -189 -7 -83 48 -126 166 -118 324 7 137 52 229 133 266 49 23 136 13 179 -20z"/>
<path d="M5865 5629 c-134 -20 -270 -85 -359 -171 l-59 -57 7 105 7 104 -231 0 -230 0 0 -590 0 -590 235 0 235 0 0 374 0 374 33 44 c46 60 140 108 213 108 81 0 129 -24 162 -79 l27 -46 3 -387 3 -388 235 0 235 0 -3 443 c-3 440 -4 442 -28 504 -46 121 -135 207 -244 238 -70 19 -169 25 -241 14z"/>
<path d="M4170 5020 l0 -590 235 0 235 0 0 590 0 590 -235 0 -235 0 0 -590z"/>
</g>
</svg>